# xmcd CD database file
#
# Track frame offsets:
#	150
#	14115
#	29627
#	44267
#	60985
#	73995
#	91292
#	105125
#	121357
#	136735
#	149630
#	166280
#	180062
#	200659
#
# Disc length: 2869 seconds
#
# Revision: 1
# Processed by: cddbd v1.5.2PL0 Copyright (c) Steve Scherf et al.
# Submitted via: CDex 1.51
#
DISCID=c20b330e
DTITLE=Osvaldir e carlos magrao - Osvaldir e carlos magrao
DYEAR=1900
DGENRE=Country
TTITLE0=Tempero de amor
TTITLE1=de barretos a vacaria
TTITLE2=loira gelada, morena quente
TTITLE3=desassossegos
TTITLE4=gaucho de passo fundo
TTITLE5=sonhei contigo
TTITLE6=pe de bode
TTITLE7=cantiga de rio e remo
TTITLE8=vem ca menina
TTITLE9=aonde voce vai eu vou tambem
TTITLE10=como vai voce
TTITLE11=madrugando
TTITLE12=minha crianca
TTITLE13=eu tenho uma camiseta escrito eu te amo
EXTD=
EXTT0=
EXTT1=
EXTT2=
EXTT3=
EXTT4=
EXTT5=
EXTT6=
EXTT7=
EXTT8=
EXTT9=
EXTT10=
EXTT11=
EXTT12=
EXTT13=
PLAYORDER=
